<svg width="35" height="35" viewBox="0 0 35 35" fill="none" xmlns="http://www.w3.org/2000/svg">
<path d="M5.69242 27.7592H10.0425V17.1946L3.82812 12.5338V25.8949C3.82812 26.9265 4.66402 27.7592 5.69242 27.7592Z" fill="#9EC1D8"/>
<path d="M24.9573 27.7592H29.3076C30.3391 27.7592 31.1719 26.9233 31.1719 25.8949V12.5337L24.9573 17.1946" fill="#FFD500"/>
<path d="M24.9573 9.11572V17.1946L31.1719 12.5338V10.0477C31.1719 7.74224 28.54 6.42783 26.6975 7.8106" fill="#1B4965"/>
<path d="M10.0427 17.1946V9.11586L17.5 14.7086L24.9573 9.11559V17.1944L17.5 22.7876" fill="#CAE9FF"/>
<path d="M3.82812 10.0479V12.5338L10.0425 17.1946V9.11592L8.30252 7.8108C6.45682 6.42803 3.82812 7.74244 3.82812 10.0479Z" fill="white"/>
</svg>
