<svg width="35" height="35" viewBox="0 0 35 35" fill="none" xmlns="http://www.w3.org/2000/svg">
<g clip-path="url(#clip0_156_243)">
<path d="M33.0686 35C34.1353 35 35.0001 34.135 35.0001 33.0683V1.93166C35.0001 0.864591 34.1351 0 33.0686 0H1.93203C0.864965 0 0.00037384 0.864722 0.00037384 1.93166V33.0682C0.00037384 34.135 0.864965 34.9999 1.93203 34.9999L33.0686 35Z" fill="#1B4965"/>
<path d="M24.1494 35V21.4461H28.6988L29.38 16.1639H24.1493V12.7914C24.1493 11.2621 24.5739 10.22 26.767 10.22L29.5641 10.2186V5.49428C29.0803 5.43002 27.4198 5.28616 25.4883 5.28616C21.4554 5.28616 18.6945 7.74775 18.6945 12.2685V16.1639H14.1334V21.4461H18.6945V34.9999L24.1494 35Z" fill="#CAE9FF"/>
</g>
<defs>
<clipPath id="clip0_156_243">
<rect width="35" height="35" fill="white"/>
</clipPath>
</defs>
</svg>
