<svg width="35" height="35" viewBox="0 0 35 35" fill="none" xmlns="http://www.w3.org/2000/svg">
<path d="M11.375 2.91667H23.625C28.2917 2.91667 32.0833 6.70834 32.0833 11.375V23.625C32.0833 25.8683 31.1922 28.0197 29.6059 29.606C28.0197 31.1922 25.8683 32.0833 23.625 32.0833H11.375C6.70833 32.0833 2.91667 28.2917 2.91667 23.625V11.375C2.91667 9.13172 3.80781 6.98031 5.39405 5.39406C6.9803 3.80782 9.13171 2.91667 11.375 2.91667ZM11.0833 5.83334C9.69095 5.83334 8.35559 6.38646 7.37102 7.37103C6.38646 8.35559 5.83333 9.69095 5.83333 11.0833V23.9167C5.83333 26.8188 8.18125 29.1667 11.0833 29.1667H23.9167C25.3091 29.1667 26.6444 28.6136 27.629 27.629C28.6135 26.6444 29.1667 25.3091 29.1667 23.9167V11.0833C29.1667 8.18125 26.8188 5.83334 23.9167 5.83334H11.0833ZM25.1562 8.02084C25.6397 8.02084 26.1034 8.2129 26.4452 8.55476C26.7871 8.89662 26.9792 9.36029 26.9792 9.84376C26.9792 10.3272 26.7871 10.7909 26.4452 11.1328C26.1034 11.4746 25.6397 11.6667 25.1562 11.6667C24.6728 11.6667 24.2091 11.4746 23.8673 11.1328C23.5254 10.7909 23.3333 10.3272 23.3333 9.84376C23.3333 9.36029 23.5254 8.89662 23.8673 8.55476C24.2091 8.2129 24.6728 8.02084 25.1562 8.02084ZM17.5 10.2083C19.4339 10.2083 21.2885 10.9766 22.656 12.344C24.0234 13.7115 24.7917 15.5661 24.7917 17.5C24.7917 19.4339 24.0234 21.2885 22.656 22.656C21.2885 24.0234 19.4339 24.7917 17.5 24.7917C15.5661 24.7917 13.7115 24.0234 12.344 22.656C10.9766 21.2885 10.2083 19.4339 10.2083 17.5C10.2083 15.5661 10.9766 13.7115 12.344 12.344C13.7115 10.9766 15.5661 10.2083 17.5 10.2083ZM17.5 13.125C16.3397 13.125 15.2269 13.5859 14.4064 14.4064C13.5859 15.2269 13.125 16.3397 13.125 17.5C13.125 18.6603 13.5859 19.7731 14.4064 20.5936C15.2269 21.4141 16.3397 21.875 17.5 21.875C18.6603 21.875 19.7731 21.4141 20.5936 20.5936C21.4141 19.7731 21.875 18.6603 21.875 17.5C21.875 16.3397 21.4141 15.2269 20.5936 14.4064C19.7731 13.5859 18.6603 13.125 17.5 13.125Z" fill="#CAE9FF"/>
</svg>
