<svg width="100" height="126" viewBox="0 0 100 126" fill="none" xmlns="http://www.w3.org/2000/svg">
<path d="M96.8008 91.782C98.0712 88.0429 98.8979 84.118 99.2366 80.074L91.1629 76.1633C91.172 74.8546 91.1251 73.536 91.0069 72.2116C90.9739 71.7536 90.9126 71.3042 90.8608 70.8488L98.456 66.0489C97.6661 62.0619 96.4104 58.2535 94.7406 54.6933L85.7692 55.3443C84.8939 53.7901 83.9161 52.2969 82.8533 50.8831L87.0285 42.9414C84.391 39.9417 81.3955 37.2651 78.1217 34.9699L70.6831 40.0121C69.1594 39.114 67.5755 38.3072 65.9337 37.6006L65.5811 28.6366C61.8434 27.3667 57.9153 26.5386 53.8768 26.1909L49.9642 34.272C48.6567 34.2604 47.3452 34.3115 46.0143 34.4256C45.5529 34.4658 45.1015 34.5236 44.6503 34.5777L39.8577 26.9741C35.8658 27.7712 32.0568 29.0276 28.493 30.6945L29.1464 39.6652C27.5942 40.5432 26.0992 41.517 24.6889 42.584L16.7417 38.4058C13.7365 41.0487 11.0602 44.0412 8.77506 47.3199L13.8217 54.7543C12.9181 56.2797 12.1044 57.8623 11.4041 59.4992L2.43586 59.8514C1.16621 63.5903 0.343524 67.511 0 71.5606L8.07795 75.471C8.0695 76.7809 8.11216 78.0976 8.22607 79.4232C8.26692 79.8812 8.32407 80.3288 8.38505 80.7854L0.781434 85.5817C1.58098 89.5694 2.83111 93.3777 4.50043 96.9385L13.4681 96.2887C14.3475 97.8415 15.3213 99.3287 16.3845 100.748L12.2077 108.687C14.8458 111.697 17.8468 114.372 21.1194 116.66L28.5544 111.617C30.0822 112.524 31.6674 113.333 33.3037 114.033L33.6569 122.999C37.3948 124.266 41.3117 125.096 45.3559 125.438L49.2775 117.359C50.5808 117.367 51.9021 117.323 53.2285 117.209C53.684 117.172 54.1353 117.109 54.5823 117.052L59.3786 124.662C63.3759 123.863 67.1796 122.611 70.7451 120.944L70.0964 111.971C71.6426 111.087 73.1328 110.116 74.554 109.053L82.4963 113.229C85.4961 110.587 88.172 107.596 90.4622 104.318L85.4248 96.8834C86.3196 95.3555 87.1278 93.7703 87.8382 92.1316L96.8008 91.782ZM49.6206 105.097C33.472 105.097 20.339 91.9619 20.339 75.8167C20.339 59.6723 33.472 46.5363 49.6206 46.5363C65.7645 46.5363 78.8989 59.6723 78.8989 75.8167C78.8989 91.9617 65.7647 105.097 49.6206 105.097Z" fill="white"/>
<path fill-rule="evenodd" clip-rule="evenodd" d="M59.542 1.76337H40.458V5.08416C18.6809 9.85832 2.29008 30.652 2.29008 55.5802C2.29008 56.4763 2.31126 57.367 2.35311 58.2519H2.23881L0 62.8321C22.2305 71.9924 78.0669 71.9924 100 62.8321L97.7612 58.2519L97.6469 58.2519C97.6887 57.3671 97.7099 56.4763 97.7099 55.5802C97.7099 30.652 81.3191 9.85832 59.542 5.08416V1.76337Z" fill="#FDC500"/>
<line x1="38.1679" y1="28.7443" x2="61.0687" y2="28.7443" stroke="#1B4965"/>
<path d="M39.0496 9.39693C39.0496 9.12078 38.8258 8.89693 38.5496 8.89693C38.2735 8.89693 38.0496 9.12078 38.0496 9.39693H39.0496ZM39.0496 28.4809V9.39693H38.0496V28.4809H39.0496Z" fill="#1B4965"/>
<path d="M61.187 9.39693C61.187 9.12078 60.9632 8.89693 60.687 8.89693C60.4109 8.89693 60.187 9.12078 60.187 9.39693H61.187ZM61.187 28.4809V9.39693H60.187V28.4809H61.187Z" fill="#1B4965"/>
<path d="M51.5267 16.5172L51.7767 16.5172L51.7767 16.2672L51.7767 3.18103C51.7767 1.87081 50.8407 0.75 49.6183 0.75C48.396 0.75 47.4599 1.87081 47.4599 3.18102L47.4599 16.2672L47.4599 16.5172L47.7099 16.5172L51.5267 16.5172Z" fill="#1B4965" stroke="#D9D9D9" stroke-width="0.5"/>
<path d="M35.9156 76.9807V83.0358H62.3975V76.9807H35.9156Z" fill="#FDC500"/>
<path d="M31.3495 73.5193C35.0858 73.5193 38.0822 76.6756 37.8223 80.4655C37.6008 83.6931 34.9683 86.2961 31.7387 86.4849C29.4227 86.6202 27.3499 85.5384 26.0995 83.8203C25.7344 83.3185 26.1001 82.6131 26.7208 82.6131H30.9285C31.1346 82.6131 31.3233 82.5014 31.4244 82.3215L32.5681 80.2872C32.6659 80.1143 32.6659 79.903 32.5681 79.7285L31.4244 77.6942C31.3233 77.5143 31.1346 77.4026 30.9285 77.4026H26.7212C26.0939 77.4026 25.7378 76.6901 26.1081 76.1838C27.2887 74.5689 29.197 73.5193 31.3495 73.5193Z" fill="#FDC500"/>
<path d="M67.2249 86.4962C63.4887 86.4962 60.4922 83.3399 60.7522 79.55C60.9736 76.3223 63.6062 73.7194 66.8358 73.5306C69.1517 73.3952 71.2245 74.4771 72.4749 76.1951C72.8402 76.697 72.4743 77.4024 71.8536 77.4024H67.6459C67.4398 77.4024 67.2514 77.5141 67.15 77.694L66.0064 79.7282C65.9086 79.9012 65.9086 80.1124 66.0064 80.287L67.15 82.3212C67.2512 82.5011 67.4398 82.6128 67.6459 82.6128H71.8532C72.4805 82.6128 72.8367 83.3254 72.4666 83.8316C71.286 85.4465 69.3775 86.4962 67.2249 86.4962Z" fill="#FDC500"/>
<rect x="7.63359" y="50.6183" width="83.9695" height="2.29008" rx="1.14504" fill="#1B4965"/>
</svg>
