<svg width="100" height="76" viewBox="0 0 100 76" fill="none" xmlns="http://www.w3.org/2000/svg">
<path d="M10.0728 40.4205L10.1168 40.3931L10.0692 40.4181C9.85008 40.5333 9.64362 40.6597 9.44531 40.8086L10.0728 40.4231V40.4205Z" fill="#FDC500"/>
<path d="M41.1114 51.9355C39.8838 50.9363 38.7274 49.827 37.6606 48.608L25.1581 56.3494L29.5716 59.0827L30.781 58.3342C31.0495 58.1196 31.3418 57.9291 31.6633 57.7866L41.1114 51.9355Z" fill="#CCCCCC"/>
<path d="M33.1011 41.5326C32.4362 40.0685 31.8972 38.5741 31.4953 37.0607L14.5521 47.5514L14.0407 47.8651L13.8982 47.956L14.0499 47.8733C15.0198 49.1009 16.1205 50.2431 17.3526 51.2806L18.023 50.8652L19.258 50.1024L33.1011 41.5326Z" fill="#CCCCCC"/>
<path d="M30.6149 27.7037L43.7749 19.5571L43.7804 19.5681L49.4488 16.062L49.6598 15.9295L50.0006 15.572C49.6598 15.1591 49.4946 14.6336 49.5768 14.1078L49.5969 14.0223C49.6407 13.8104 49.7119 13.604 49.8289 13.409L50.0006 13.2271C50.5842 12.5193 51.5881 12.3051 52.3974 12.7837L52.4558 12.8198L68.6465 22.9309L71.8972 24.9619C72.816 25.6031 73.9861 25.8698 75.1607 25.598C77.3675 25.0856 78.7412 22.8838 78.2315 20.682C77.9703 19.5536 77.2652 18.6516 76.3491 18.1008L76.2339 18.0296L55.9504 5.36185L55.9394 5.37272L55.89 5.33937C53.9993 4.16701 52.0181 3.2725 50.0005 2.58746C45.0134 0.892161 39.7541 0.622769 34.7799 1.69597C33.6125 1.94409 32.4671 2.26328 31.3437 2.65598C30.3336 3.00854 29.3461 3.42146 28.377 3.88675C26.3456 4.29967 24.1636 3.97715 22.2609 2.80222L17.738 0.000366211L0 28.6531L4.10929 31.1955L6.6659 32.778C7.9848 33.9672 8.86528 35.5136 9.23972 37.1763L9.31367 37.57C9.42595 38.172 9.58035 38.7638 9.74198 39.3557C9.84069 39.7133 9.95569 40.066 10.069 40.4184L10.1166 40.3933L30.6149 27.7037Z" fill="#CCCCCC"/>
<path d="M82.2642 0L77.7401 2.80186C75.8366 3.97693 73.6554 4.2993 71.624 3.88638C70.6586 3.42109 69.6675 3.00817 68.6574 2.65562C67.5339 2.26292 66.3866 1.94372 65.2248 1.69561C60.247 0.622403 54.9877 0.891946 50.0006 2.5871C52.0183 3.27213 53.9994 4.16679 55.8902 5.339L55.9395 5.37236L55.9505 5.36149L76.2341 18.0297L76.3492 18.1009C77.2653 18.6516 77.9704 19.5537 78.2317 20.6821C78.7413 22.8839 77.3677 25.0857 75.1609 25.5981C73.9863 25.8698 72.8162 25.6031 71.8974 24.962L68.6467 22.931L52.4559 12.8199L52.3975 12.7838C51.5883 12.3052 50.5844 12.5194 50.0008 13.2272L50.1743 13.4091C50.6064 14.1133 50.4986 14.969 50.0008 15.5719L49.66 15.9295L49.449 16.062L43.7805 19.568L43.7751 19.557L30.615 27.7036L10.1169 40.3932L10.073 40.4234L9.44543 40.8089C8.42701 41.5848 7.75842 42.7955 7.75842 44.1774C7.75842 46.522 9.65641 48.4211 12.002 48.4211C12.6871 48.4211 13.3265 48.2421 13.8982 47.9561L14.0407 47.8652L14.5522 47.5515L31.4954 37.0607C31.8973 38.5742 32.4362 40.0685 33.1012 41.5327L19.2579 50.1023L18.0229 50.8651C17.1388 51.6432 16.5651 52.7694 16.5651 54.0409C16.5651 56.3855 18.4669 58.2845 20.8115 58.2845C21.9284 58.2845 22.9407 57.8443 23.6986 57.1341L23.759 57.2168L25.1582 56.3494L37.6607 48.6081C38.7275 49.8269 39.8839 50.9362 41.1115 51.9356L31.6633 57.7866C31.3419 57.9293 31.0495 58.1196 30.781 58.3342C29.8001 59.1046 29.1606 60.2851 29.1606 61.6255C29.1606 63.9538 31.0477 65.8362 33.3778 65.8362C34.5991 65.8362 35.6914 65.311 36.4605 64.4794L36.5876 64.642L37.5914 64.02L45.589 59.0663L47.9894 57.5802V57.4285V55.4446L47.9693 55.0396L47.9894 54.6354C48.195 52.494 49.9988 50.818 52.1947 50.818C54.5083 50.8212 56.3881 52.6867 56.4108 54.9985V55.0424V55.0835L56.4072 60.3022L56.4054 67.7354L61.0508 64.8596V64.2983L61.0453 64.2567L61.0508 64.2156V59.7213L61.0562 53.2756V49.9568L61.058 48.8282L61.0452 48.6274L61.058 48.4236C61.1054 47.3777 61.5375 46.4315 62.2144 45.7236C62.9826 44.9203 64.0576 44.4192 65.2577 44.4165C66.456 44.4192 67.5339 44.9203 68.3001 45.7236C69.0226 46.4808 69.4666 47.5016 69.4666 48.6301L69.4583 48.8338L69.4775 48.831V53.0252L69.4757 59.6747L74.1192 56.7984V51.9849L74.1228 46.0018V45.9881L74.1174 45.8364L74.1447 45.4432V44.9259H74.227C74.5139 43.6462 75.3797 42.5839 76.5415 42.0363C77.0869 41.7773 77.6924 41.6207 78.3337 41.6207C80.3505 41.6234 82.0274 43.0378 82.4421 44.9257H82.5225V45.581L82.5408 45.7514L82.5518 45.8423L82.5408 46.035V51.3741C85.6975 48.74 88.0458 45.4156 89.477 41.758C90.0087 40.4012 90.4122 38.9974 90.6908 37.5698L90.7612 37.176C91.1383 35.5132 92.017 33.9669 93.3379 32.7777L95.8925 31.1953L100 28.6529L82.2642 0Z" fill="#323335"/>
<path d="M69.4776 48.831L69.4584 48.8338L69.4667 48.6301C69.4667 47.5016 69.0228 46.481 68.3002 45.7236C67.5339 44.9203 66.4561 44.4192 65.2578 44.4165C64.0577 44.4192 62.9825 44.9203 62.2145 45.7236C61.5377 46.4315 61.1055 47.3777 61.0581 48.4236L61.0453 48.6274L61.0581 48.8282L61.0563 49.9568V53.2756L61.0509 59.7213V64.2156L61.0454 64.2567L61.0509 64.2983V64.8596L61.102 64.8262C61.3861 66.8795 63.1224 68.4646 65.2525 68.4646C67.3946 68.4646 69.1454 66.8549 69.4057 64.7823H69.4414V64.4408L69.4605 64.2567L69.4414 64.0725V59.6934L69.4761 59.6747L69.4779 53.0252V48.831H69.4776Z" fill="#CCCCCC"/>
<path d="M56.4107 55.0835V55.0424V54.9985C56.3879 52.6867 54.508 50.8212 52.1945 50.818C49.9987 50.818 48.1948 52.4941 47.9892 54.6354L47.9692 55.0396L47.9892 55.4446V57.4285V57.5802V60.5524L45.5888 59.0663L37.5912 64.02L42.0029 66.7496L43.2114 66.0015L43.3027 65.9462L47.9856 63.0458V66.0125V67.9882L47.9838 72.9396V72.9506L48.2031 72.8154C48.7401 74.5166 50.3148 75.7552 52.1947 75.7552C54.3356 75.7552 56.0857 74.1476 56.3477 72.0751H56.3833V71.7341L56.4025 71.5495L56.3833 71.3654V67.7515L56.4054 67.7351L56.4072 60.3019L56.4107 55.0835Z" fill="#CCCCCC"/>
<path d="M82.5518 45.8423L82.5408 45.7514L82.5226 45.5811V44.9258H82.4421C82.0275 43.0377 80.3505 41.6234 78.3337 41.6207C77.6925 41.6207 77.087 41.7772 76.5415 42.0364C75.3797 42.5839 74.5139 43.6462 74.227 44.9259H74.1448V45.4433L74.1174 45.8364L74.1229 45.9881V46.0018L74.1192 51.985V56.7984L74.1448 56.782V57.4616L74.1265 57.6379L74.1448 57.8169V58.1635H74.1813C74.4416 60.236 76.1906 61.8459 78.3336 61.8459C80.4746 61.8459 82.2283 60.236 82.4857 58.1635H82.5223V57.8218L82.5405 57.6379L82.5223 57.456V51.3879L82.5405 51.3742V46.035L82.5518 45.8423Z" fill="#CCCCCC"/>
<path d="M47.9855 66.0127V63.046L43.3026 65.9464L43.2113 66.0017C42.1043 66.7613 41.3781 68.0322 41.3781 69.4721C41.3781 71.7999 43.2634 73.6851 45.5907 73.6851C46.4803 73.6851 47.3016 73.4074 47.9837 72.9397L47.9855 67.9882V66.0127Z" fill="#323335"/>
</svg>
