<svg width="697" height="72" viewBox="0 0 697 72" fill="none" xmlns="http://www.w3.org/2000/svg">
<path d="M82.1957 26.7C82.1957 38.1 76.3957 46.5 66.9957 50.2L79.8957 71H58.6957L47.3957 52.3H18.3957V71H0.395703V0.999995H55.3957C71.2957 0.999995 82.1957 11.1 82.1957 26.7ZM18.3957 16.1V37.2H50.3957C55.7957 37.2 64.1957 37.2 64.1957 26.7C64.1957 16.1 55.7957 16.1 50.3957 16.1H18.3957ZM162.091 15.3H106.091V29.5H162.091V42.5H106.091V56.7H162.091V71H88.091V0.999995H162.091V15.3ZM263.857 0.999995L221.457 32.1L263.857 71H238.957L208.157 41.9L186.657 57.6V71H168.657V0.999995H186.657V37.3L236.557 0.999995H263.857ZM343.186 71L335.686 56.1H293.786L286.286 71H266.486L302.586 0.999995H326.886L363.086 71H343.186ZM300.486 42.7H328.986L314.786 14.3L300.486 42.7ZM380.89 48L341.29 0.999995H362.99L389.89 32.9L416.79 0.999995H438.49L398.89 48V71H380.89V48ZM493.869 71L486.369 56.1H444.469L436.969 71H417.169L453.269 0.999995H477.569L513.769 71H493.869ZM451.169 42.7H479.669L465.469 14.3L451.169 42.7ZM511.7 46.9H529.7C529.7 54.3 535.7 57.7 558.5 57.7C577.4 57.7 583.1 55.6 583.1 50.1C583.1 44.3 579.1 43.3 556.4 42.2C525.9 40.8 513.8 36 513.8 20.3C513.8 4.9 529.5 -3.8147e-06 555.7 -3.8147e-06C582.1 -3.8147e-06 598.1 6.59999 598.1 23.9H580.1C580.1 16.2 572.4 14.3 553.7 14.3C536 14.3 531.8 16 531.8 21.2C531.8 26.6 536 27.6 556.4 28.8C584 30.3 601.1 31.8 601.1 49.5C601.1 68.2 583.4 72 557.5 72C528.8 72 511.7 67.1 511.7 46.9ZM676.682 71L669.182 56.1H627.282L619.782 71H599.982L636.082 0.999995H660.382L696.582 71H676.682ZM633.982 42.7H662.482L648.282 14.3L633.982 42.7Z" fill="#00B4D8" fill-opacity="0.1"/>
</svg>
