<svg width="1001" height="72" viewBox="0 0 1001 72" fill="none" xmlns="http://www.w3.org/2000/svg">
<path d="M0.382031 46.9H18.382C18.382 54.3 24.382 57.7 47.182 57.7C66.082 57.7 71.782 55.6 71.782 50.1C71.782 44.3 67.782 43.3 45.082 42.2C14.582 40.8 2.48203 36 2.48203 20.3C2.48203 4.9 18.182 -3.8147e-06 44.382 -3.8147e-06C70.782 -3.8147e-06 86.782 6.59999 86.782 23.9H68.782C68.782 16.2 61.082 14.3 42.382 14.3C24.682 14.3 20.482 16 20.482 21.2C20.482 26.6 24.682 27.6 45.082 28.8C72.682 30.3 89.782 31.8 89.782 49.5C89.782 68.2 72.082 72 46.182 72C17.482 72 0.382031 67.1 0.382031 46.9ZM165.363 71L157.863 56.1H115.963L108.463 71H88.6633L124.763 0.999995H149.063L185.263 71H165.363ZM122.663 42.7H151.163L136.963 14.3L122.663 42.7ZM271.366 26.7C271.366 38.1 265.566 46.5 256.166 50.2L269.066 71H247.866L236.566 52.3H207.566V71H189.566V0.999995H244.566C260.466 0.999995 271.366 11.1 271.366 26.7ZM207.566 16.1V37.2H239.566C244.966 37.2 253.366 37.2 253.366 26.7C253.366 16.1 244.966 16.1 239.566 16.1H207.566ZM349.543 71L342.043 56.1H300.143L292.643 71H272.843L308.943 0.999995H333.243L369.443 71H349.543ZM306.843 42.7H335.343L321.143 14.3L306.843 42.7ZM445.945 0.999995H463.945V71H439.445L391.745 18.5V71H373.745V0.999995H398.145L445.945 53.6V0.999995ZM544.953 71L537.453 56.1H495.553L488.053 71H468.253L504.353 0.999995H528.653L564.853 71H544.953ZM502.253 42.7H530.753L516.553 14.3L502.253 42.7ZM660.479 45.2V33.5H704.879V71H691.579L690.779 60C684.179 67.2 673.679 72 658.779 72C632.979 72 617.179 59.2 617.179 36C617.179 12.8 632.979 -3.8147e-06 661.779 -3.8147e-06C689.779 -3.8147e-06 703.779 10.9 704.879 28.3H686.579C685.579 23 680.779 15.1 661.779 15.1C638.379 15.1 635.179 28 635.179 36.4C635.179 44.9 638.479 58.1 661.779 58.1C679.179 58.1 686.179 50.5 686.579 45.2H660.479ZM785.929 15.3H729.929V29.5H785.929V42.5H729.929V56.7H785.929V71H711.929V0.999995H785.929V15.3ZM899.695 0.999995V71H881.695V23L852.595 71H839.595L810.495 23V71H792.495V0.999995H816.795L846.095 50.4L875.395 0.999995H899.695ZM980.695 71L973.195 56.1H931.295L923.795 71H903.995L940.095 0.999995H964.395L1000.6 71H980.695ZM937.995 42.7H966.495L952.295 14.3L937.995 42.7Z" fill="#00B4D8" fill-opacity="0.1"/>
</svg>
