<svg width="100" height="92" viewBox="0 0 100 92" fill="none" xmlns="http://www.w3.org/2000/svg">
<path d="M85.0779 16.7053H74.4543C74.1877 16.7053 73.927 16.8134 73.7364 17.0034C73.5499 17.1905 73.4424 17.4515 73.4424 17.7177V20.5332H86.617L86.0715 17.5356C85.9842 17.0561 85.5644 16.7053 85.0779 16.7053Z" fill="#00B4D8"/>
<path d="M73.4424 52.8753H92.5219L86.9068 22.1117H73.4424V52.8753Z" fill="#00B4D8"/>
<path d="M73.4424 22.1117H86.9068L86.6168 20.5331H73.4424V22.1117Z" fill="#CCCCCC"/>
<path d="M92.6514 52.8754H92.5215H73.4422H73.136L37.1914 25.5125C36.8873 25.2808 36.4757 25.2413 36.1329 25.4101C35.7872 25.5813 35.5682 25.9342 35.5682 26.3165V51.236L1.78139 25.5125C1.47615 25.2808 1.06453 25.2413 0.721935 25.4101C0.377161 25.5813 0.158203 25.9342 0.158203 26.3165V53.8878V90.3082C0.158203 90.5749 0.265586 90.8354 0.455228 91.0255C0.64286 91.2125 0.903366 91.3205 1.17007 91.3205H98.9885C99.2887 91.3205 99.5705 91.1888 99.7631 90.9597C99.9558 90.73 100.037 90.4325 99.9841 90.1369L93.6473 53.7139C93.5629 53.2287 93.1441 52.8754 92.6514 52.8754ZM24.3617 61.1584C24.3617 61.3931 24.2726 61.6115 24.1062 61.7779C23.94 61.9436 23.7209 62.0334 23.4877 62.0334H10.3699C10.1367 62.0334 9.91372 61.9411 9.74938 61.7779C9.58704 61.614 9.4939 61.3901 9.4939 61.1584V57.3015C9.4939 57.0723 9.58721 56.8458 9.74938 56.682C9.91355 56.5213 10.1367 56.4265 10.3699 56.4265H23.4877C23.7209 56.4265 23.94 56.5187 24.1062 56.6845C24.2726 56.8482 24.3617 57.0698 24.3617 57.3014V61.1584ZM59.6471 61.1584C59.6471 61.3931 59.5558 61.6115 59.3916 61.7779C59.2254 61.9436 59.0063 62.0334 58.7712 62.0334H45.6534C45.4222 62.0334 45.1951 61.9411 45.0349 61.7779C44.8687 61.614 44.7754 61.3901 44.7754 61.1584V57.3015C44.7754 57.0723 44.8687 56.8458 45.0349 56.682C45.1951 56.5213 45.4222 56.4265 45.6534 56.4265H58.7712C59.0065 56.4265 59.2254 56.5187 59.3916 56.6845C59.5558 56.8482 59.6471 57.0698 59.6471 57.3014V61.1584Z" fill="#323335"/>
<path d="M10.3701 56.4264C10.1369 56.4264 9.91397 56.5212 9.74962 56.6819C9.58729 56.8457 9.49414 57.0722 9.49414 57.3014V61.1582C9.49414 61.3899 9.58745 61.6139 9.74962 61.7778C9.9138 61.9409 10.1369 62.0332 10.3701 62.0332H23.488C23.7212 62.0332 23.9403 61.9434 24.1065 61.7778C24.2728 61.6114 24.362 61.3929 24.362 61.1582V57.3014C24.362 57.0697 24.2728 56.8482 24.1065 56.6846C23.9403 56.5187 23.7212 56.4266 23.488 56.4266H10.3701V56.4264Z" fill="#00B4D8"/>
<path d="M45.6534 56.4264C45.4222 56.4264 45.1951 56.5212 45.0349 56.6819C44.8687 56.8457 44.7754 57.0722 44.7754 57.3014V61.1582C44.7754 61.3899 44.8687 61.6139 45.0349 61.7778C45.1951 61.9409 45.4222 62.0332 45.6534 62.0332H58.7712C59.0064 62.0332 59.2254 61.9434 59.3916 61.7778C59.5558 61.6114 59.6471 61.3929 59.6471 61.1582V57.3014C59.6471 57.0697 59.5558 56.8482 59.3916 56.6846C59.2254 56.5187 59.0063 56.4266 58.7712 56.4266H45.6534V56.4264Z" fill="#00B4D8"/>
<path d="M0.0142385 22.059L34.4053 48.2174L34.3903 44.4636L0 18.3082L0.0142385 22.059Z" fill="#CCCCCC"/>
<path d="M36.1001 23.1561L70.4893 49.314L70.4751 45.56L36.084 19.4021L36.1001 23.1561Z" fill="#CCCCCC"/>
<path d="M70.6522 1.66356C68.9286 0.635607 66.546 0.000168715 63.9118 0.000168715C60.9918 0.000168715 58.378 0.782864 56.634 2.01437C55.9162 1.94551 55.168 1.90581 54.3954 1.90581C49.1413 1.90581 44.8789 3.58277 44.8789 5.65208C44.8789 7.71838 49.1413 9.39785 54.3954 9.39785C55.168 9.39785 55.9162 9.35831 56.634 9.28979C58.378 10.5181 60.9918 11.3033 63.9118 11.3033C66.5459 11.3033 68.9285 10.668 70.6522 9.64009C72.3737 10.668 74.7564 11.3033 77.3905 11.3033C82.6465 11.3033 86.907 8.77263 86.907 5.65191C86.907 2.53052 82.6465 0 77.3905 0C74.7566 0.000335057 72.3739 0.635607 70.6522 1.66356Z" fill="#CCCCCC"/>
</svg>
