<svg width="100" height="92" viewBox="0 0 100 92" fill="none" xmlns="http://www.w3.org/2000/svg">
<path d="M85.0779 16.7053H74.4543C74.1877 16.7053 73.927 16.8134 73.7364 17.0034C73.5499 17.1905 73.4424 17.4515 73.4424 17.7177V20.5332H86.617L86.0715 17.5356C85.9842 17.0561 85.5644 16.7053 85.0779 16.7053Z" fill="#FDC500"/>
<path d="M73.4424 52.8753H92.5219L86.9068 22.1117H73.4424V52.8753Z" fill="#FDC500"/>
<path d="M73.4424 22.1117H86.9068L86.6168 20.5331H73.4424V22.1117Z" fill="#CCCCCC"/>
<path d="M92.6515 52.8754H92.5217H73.4423H73.1361L37.1915 25.5125C36.8875 25.2808 36.4758 25.2413 36.1331 25.4101C35.7873 25.5813 35.5683 25.9342 35.5683 26.3165V51.236L1.78151 25.5125C1.47627 25.2808 1.06465 25.2413 0.722057 25.4101C0.377283 25.5813 0.158325 25.9342 0.158325 26.3165V53.8878V90.3082C0.158325 90.5749 0.265708 90.8354 0.45535 91.0255C0.642982 91.2125 0.903488 91.3205 1.17019 91.3205H98.9886C99.2888 91.3205 99.5706 91.1888 99.7633 90.9597C99.9559 90.73 100.037 90.4325 99.9842 90.1369L93.6475 53.7139C93.563 53.2287 93.1442 52.8754 92.6515 52.8754ZM24.3618 61.1584C24.3618 61.3931 24.2727 61.6115 24.1064 61.7779C23.9402 61.9436 23.721 62.0334 23.4878 62.0334H10.37C10.1368 62.0334 9.91384 61.9411 9.7495 61.7779C9.58716 61.614 9.49402 61.3901 9.49402 61.1584V57.3015C9.49402 57.0723 9.58733 56.8458 9.7495 56.682C9.91368 56.5213 10.1368 56.4265 10.37 56.4265H23.4878C23.721 56.4265 23.9402 56.5187 24.1064 56.6845C24.2727 56.8482 24.3618 57.0698 24.3618 57.3014V61.1584ZM59.6472 61.1584C59.6472 61.3931 59.5559 61.6115 59.3917 61.7779C59.2255 61.9436 59.0064 62.0334 58.7714 62.0334H45.6535C45.4224 62.0334 45.1952 61.9411 45.035 61.7779C44.8688 61.614 44.7755 61.3901 44.7755 61.1584V57.3015C44.7755 57.0723 44.8688 56.8458 45.035 56.682C45.1952 56.5213 45.4224 56.4265 45.6535 56.4265H58.7714C59.0066 56.4265 59.2255 56.5187 59.3917 56.6845C59.5559 56.8482 59.6472 57.0698 59.6472 57.3014V61.1584Z" fill="#323335"/>
<path d="M10.37 56.4264C10.1368 56.4264 9.91384 56.5212 9.7495 56.6819C9.58716 56.8457 9.49402 57.0722 9.49402 57.3014V61.1582C9.49402 61.3899 9.58733 61.6139 9.7495 61.7778C9.91368 61.9409 10.1368 62.0332 10.37 62.0332H23.4878C23.721 62.0332 23.9402 61.9434 24.1064 61.7778C24.2727 61.6114 24.3618 61.3929 24.3618 61.1582V57.3014C24.3618 57.0697 24.2727 56.8482 24.1064 56.6846C23.9402 56.5187 23.721 56.4266 23.4878 56.4266H10.37V56.4264Z" fill="#FDC500"/>
<path d="M45.6535 56.4264C45.4223 56.4264 45.1952 56.5212 45.035 56.6819C44.8688 56.8457 44.7755 57.0722 44.7755 57.3014V61.1582C44.7755 61.3899 44.8688 61.6139 45.035 61.7778C45.1952 61.9409 45.4223 62.0332 45.6535 62.0332H58.7713C59.0066 62.0332 59.2255 61.9434 59.3917 61.7778C59.5559 61.6114 59.6472 61.3929 59.6472 61.1582V57.3014C59.6472 57.0697 59.5559 56.8482 59.3917 56.6846C59.2255 56.5187 59.0064 56.4266 58.7713 56.4266H45.6535V56.4264Z" fill="#FDC500"/>
<path d="M0.0142385 22.059L34.4053 48.2174L34.3903 44.4636L0 18.3082L0.0142385 22.059Z" fill="#CCCCCC"/>
<path d="M36.1006 23.1561L70.4898 49.314L70.4756 45.56L36.0845 19.4021L36.1006 23.1561Z" fill="#CCCCCC"/>
<path d="M70.652 1.66356C68.9285 0.635607 66.5459 0.000168715 63.9117 0.000168715C60.9917 0.000168715 58.3779 0.782864 56.6339 2.01437C55.9161 1.94551 55.1679 1.90581 54.3952 1.90581C49.1412 1.90581 44.8788 3.58277 44.8788 5.65208C44.8788 7.71838 49.1412 9.39785 54.3952 9.39785C55.1679 9.39785 55.9161 9.35831 56.6339 9.28979C58.3779 10.5181 60.9917 11.3033 63.9117 11.3033C66.5458 11.3033 68.9283 10.668 70.652 9.64009C72.3736 10.668 74.7563 11.3033 77.3904 11.3033C82.6464 11.3033 86.9068 8.77263 86.9068 5.65191C86.9068 2.53052 82.6464 0 77.3904 0C74.7565 0.000335057 72.3737 0.635607 70.652 1.66356Z" fill="#CCCCCC"/>
</svg>
